<svg width="240" height="240" viewBox="0 0 240 240" fill="none" xmlns="http://www.w3.org/2000/svg">
<path d="M220.213 83.2308C219.37 83.4472 218.476 83.3199 217.726 82.8771C216.977 82.4343 216.434 81.7121 216.217 80.8692C207.993 48.8681 184.532 22.9411 153.46 11.513C152.643 11.2125 151.979 10.5998 151.614 9.8097C151.249 9.01958 151.212 8.11677 151.513 7.29986C151.813 6.48295 152.426 5.81887 153.216 5.4537C154.006 5.08853 154.909 5.05219 155.726 5.35267C188.823 17.5256 213.813 45.1453 222.575 79.2352C222.682 79.6526 222.706 80.0871 222.645 80.5138C222.585 80.9406 222.441 81.3512 222.221 81.7222C222.002 82.0933 221.712 82.4175 221.367 82.6763C221.023 82.9352 220.63 83.1236 220.213 83.2308ZM155.99 26.5899C155.202 26.2194 154.299 26.1771 153.48 26.4721C152.662 26.7671 151.994 27.3754 151.623 28.163C151.253 28.9506 151.21 29.8531 151.505 30.672C151.8 31.4909 152.409 32.159 153.196 32.5294C173.511 42.0825 189.101 59.7708 195.969 81.0591C196.182 81.7197 196.599 82.2958 197.16 82.7046C197.721 83.1134 198.397 83.3339 199.092 83.3344C199.426 83.3344 199.766 83.2828 200.1 83.1745C200.51 83.0423 200.89 82.8306 201.218 82.5514C201.547 82.2722 201.817 81.9311 202.013 81.5475C202.21 81.164 202.329 80.7454 202.364 80.3159C202.398 79.8863 202.348 79.4541 202.216 79.0439C194.792 56.0316 177.943 36.9131 155.99 26.5899ZM175.25 81.3652C175.598 82.1628 176.249 82.7895 177.059 83.1073C177.87 83.4252 178.773 83.4082 179.571 83.0602C180.369 82.7119 180.995 82.0611 181.313 81.2507C181.631 80.4404 181.614 79.537 181.266 78.7392C176.005 66.6867 167.41 56.4549 156.409 49.1485C156.05 48.9054 155.646 48.7359 155.221 48.6497C154.796 48.5635 154.359 48.5623 153.933 48.6462C153.508 48.7301 153.103 48.8974 152.743 49.1385C152.383 49.3795 152.074 49.6896 151.834 50.0508C151.594 50.4119 151.428 50.817 151.346 51.2426C151.264 51.6682 151.266 52.1059 151.354 52.5305C151.442 52.955 151.613 53.358 151.857 53.7161C152.101 54.0742 152.414 54.3804 152.778 54.6169C162.725 61.223 170.496 70.4724 175.25 81.3652ZM194.906 196.925C193.715 203.5 188.142 210.136 178.377 210.136H142.562C142.652 210.435 142.701 210.751 142.701 211.08C142.701 224.187 132.037 234.851 118.93 234.851C105.822 234.851 95.1715 224.187 95.1715 211.08C95.1715 210.751 95.2208 210.435 95.3108 210.136H59.4814C49.7248 210.136 44.1565 203.503 42.9659 196.928C41.4912 188.783 46.0662 180.994 54.0922 177.99C59.9337 175.8 67.9348 172.802 69.9753 146.606C70.1164 144.8 71.697 143.453 73.5022 143.589C74.3699 143.657 75.1753 144.066 75.7411 144.728C76.3069 145.389 76.5869 146.248 76.5195 147.116C74.3375 175.136 65.3811 180.768 56.3947 184.136C50.524 186.334 48.664 191.558 49.4248 195.759C50.1087 199.536 53.1097 203.572 59.4814 203.572H178.377C184.758 203.572 187.762 199.534 188.446 195.755C189.207 191.555 187.347 186.334 181.479 184.136C171.04 180.218 160.851 173.053 160.851 133.135V105.817C160.851 86.9747 148.347 70.9988 131.2 65.7413C131.085 65.7138 130.972 65.6801 130.862 65.6405C126.989 64.4895 122.97 63.9061 118.93 63.9085C114.83 63.9085 110.832 64.4944 106.979 65.6527C106.906 65.6778 106.832 65.7003 106.757 65.7202C104.442 66.4316 102.193 67.3421 100.035 68.4413C99.2599 68.827 98.364 68.891 97.5422 68.6193C96.7203 68.3477 96.0391 67.7624 95.6467 66.9908C95.2543 66.2193 95.1826 65.324 95.4471 64.4998C95.7117 63.6757 96.2911 62.9894 97.0592 62.5903C98.8632 61.6731 100.722 60.8687 102.626 60.1819V53.9822C102.626 44.9921 109.94 37.6786 118.93 37.6786C127.919 37.6786 135.247 44.9925 135.247 53.9822V60.1716C153.979 66.8845 167.416 84.81 167.416 105.817V133.135C167.416 171.846 177.266 175.544 183.784 177.99C191.806 180.994 196.38 188.781 194.906 196.925ZM118.93 57.3436C122.27 57.3436 125.531 57.683 128.683 58.3289V53.9817C128.683 48.6113 124.308 44.2425 118.93 44.2425C113.552 44.2425 109.19 48.6113 109.19 53.9817V58.3275C112.395 57.67 115.658 57.3406 118.93 57.3436ZM136.276 210.135H101.597C101.687 210.435 101.736 210.75 101.736 211.079C101.736 220.567 109.449 228.286 118.93 228.286C128.411 228.286 136.137 220.567 136.137 211.079C136.137 210.751 136.187 210.435 136.277 210.135H136.276ZM51.9312 139.774L22.1994 156.332C21.6371 156.645 20.9949 156.786 20.3529 156.737C19.711 156.688 19.0977 156.452 18.5895 156.056C18.0812 155.661 17.7002 155.126 17.4939 154.516C17.2876 153.907 17.2652 153.25 17.4294 152.627L25.5008 122.04C20.6131 114.91 18.0383 106.594 18.0383 97.8835C18.0383 74.2692 37.2495 55.058 60.8633 55.058C84.477 55.058 103.689 74.2692 103.689 97.8835C103.689 121.498 84.4775 140.708 60.8633 140.708C57.8811 140.708 54.8825 140.394 51.9312 139.774ZM52.1989 133.106C55.0359 133.793 57.9443 134.141 60.8633 134.144C80.8578 134.144 97.1244 117.878 97.1244 97.8835C97.1244 77.8894 80.8578 61.6224 60.8633 61.6224C40.8687 61.6224 24.6026 77.8889 24.6026 97.8835C24.6026 105.712 27.058 113.165 31.7037 119.435C31.9967 119.83 32.197 120.286 32.2899 120.77C32.3827 121.253 32.3656 121.75 32.24 122.226L25.744 146.845L49.8331 133.43C50.5534 133.03 51.398 132.914 52.1994 133.107L52.1989 133.106ZM44.2808 87.9042H79.054C79.9245 87.9042 80.7594 87.5584 81.3749 86.9429C81.9904 86.3274 82.3362 85.4925 82.3362 84.622C82.3362 83.7516 81.9904 82.9167 81.3749 82.3012C80.7594 81.6857 79.9245 81.3399 79.054 81.3399H44.2808C43.4103 81.3399 42.5754 81.6857 41.9599 82.3012C41.3444 82.9167 40.9986 83.7516 40.9986 84.622C40.9986 85.4925 41.3444 86.3274 41.9599 86.9429C42.5754 87.5584 43.4103 87.9042 44.2808 87.9042ZM89.405 98.5603C89.405 97.6898 89.0592 96.855 88.4436 96.2395C87.8281 95.6239 86.9933 95.2781 86.1228 95.2781H37.1989C36.3284 95.2781 35.4936 95.6239 34.878 96.2395C34.2625 96.855 33.9167 97.6898 33.9167 98.5603C33.9167 99.4308 34.2625 100.266 34.878 100.881C35.4936 101.497 36.3284 101.843 37.1989 101.843H86.1228C86.9933 101.843 87.8281 101.497 88.4436 100.881C89.0592 100.266 89.405 99.4308 89.405 98.5603ZM82.3362 112.512C82.3362 111.642 81.9904 110.807 81.3749 110.191C80.7594 109.576 79.9245 109.23 79.054 109.23H44.2808C43.4103 109.23 42.5754 109.576 41.9599 110.191C41.3444 110.807 40.9986 111.642 40.9986 112.512C40.9986 113.383 41.3444 114.218 41.9599 114.833C42.5754 115.449 43.4103 115.794 44.2808 115.794H79.054C79.4851 115.794 79.9119 115.709 80.3101 115.545C80.7083 115.38 81.0701 115.138 81.3749 114.833C81.6797 114.528 81.9214 114.166 82.0864 113.768C82.2513 113.37 82.3362 112.943 82.3362 112.512Z" fill="#0085FF"/>
</svg>
