<svg width="24" height="24" viewBox="0 0 24 24" fill="none" xmlns="http://www.w3.org/2000/svg">
<path fill-rule="evenodd" clip-rule="evenodd" d="M12 4.938C11.6212 4.20369 11.0476 3.5878 10.3421 3.15777C9.63653 2.72775 8.82626 2.50018 8 2.5C5.5165 2.5 3.5 4.5165 3.5 7C3.5 9.4835 5.5165 11.5 8 11.5C8.82626 11.4998 9.63653 11.2723 10.3421 10.8422C11.0476 10.4122 11.6212 9.79631 12 9.062C12.3787 9.79638 12.9523 10.4123 13.6578 10.8424C14.3634 11.2724 15.1737 11.4999 16 11.5C18.4835 11.5 20.5 9.4835 20.5 7C20.5 4.5165 18.4835 2.5 16 2.5C15.1737 2.50018 14.3635 2.72775 13.6579 3.15777C12.9524 3.5878 12.3788 4.20369 12 4.938ZM16 3.5C17.9315 3.5 19.5 5.0685 19.5 7C19.5 8.9315 17.9315 10.5 16 10.5C14.0685 10.5 12.5 8.9315 12.5 7C12.5 5.0685 14.0685 3.5 16 3.5ZM8 3.5C9.9315 3.5 11.5 5.0685 11.5 7C11.5 8.9315 9.9315 10.5 8 10.5C6.0685 10.5 4.5 8.9315 4.5 7C4.5 5.0685 6.0685 3.5 8 3.5ZM12 12.875C12.62 12.633 13.2945 12.5 14 12.5H18C21.0375 12.5 23.5 14.9625 23.5 18V20C23.5 20.3978 23.342 20.7794 23.0607 21.0607C22.7794 21.342 22.3978 21.5 22 21.5H2C1.60218 21.5 1.22064 21.342 0.93934 21.0607C0.658035 20.7794 0.5 20.3978 0.5 20V18C0.5 14.9625 2.9625 12.5 6 12.5H10C10.7055 12.5 11.38 12.633 12 12.875ZM14.5 18V20C14.5 20.1326 14.4473 20.2598 14.3536 20.3536C14.2598 20.4473 14.1326 20.5 14 20.5H2C1.86739 20.5 1.74021 20.4473 1.64645 20.3536C1.55268 20.2598 1.5 20.1326 1.5 20V18C1.5 16.8065 1.97411 15.6619 2.81802 14.818C3.66193 13.9741 4.80653 13.5 6 13.5H10C11.1935 13.5 12.3381 13.9741 13.182 14.818C14.0259 15.6619 14.5 16.8065 14.5 18ZM15.4145 20.5H22C22.1326 20.5 22.2598 20.4473 22.3536 20.3536C22.4473 20.2598 22.5 20.1326 22.5 20V18C22.5 16.8065 22.0259 15.6619 21.182 14.818C20.3381 13.9741 19.1935 13.5 18 13.5H14C13.7445 13.5 13.4935 13.5215 13.2495 13.5625C13.9475 14.0728 14.5151 14.7406 14.9062 15.5117C15.2972 16.2829 15.5007 17.1354 15.5 18V20C15.5 20.1755 15.47 20.3435 15.4145 20.5Z" fill="#5E5F60"/>
</svg>
