<svg width="23" height="24" viewBox="0 0 23 24" fill="none" xmlns="http://www.w3.org/2000/svg">
<path d="M21.9998 10.0011L20.4016 9.38589C20.3152 9.0547 20.2112 8.72839 20.0898 8.40836C20.2241 8.35766 20.345 8.27703 20.4435 8.17258C20.6832 7.91974 20.7631 7.57066 20.6572 7.23878L20.076 5.41704L20.0889 5.38783C20.0934 5.3778 20.0963 5.36739 20.0999 5.35713C20.6602 5.00838 20.9363 4.31093 20.7267 3.65407C20.6068 3.27818 20.3477 2.97152 19.9971 2.79054C19.7435 2.65961 19.464 2.60627 19.1873 2.63168L18.5568 0.655754C18.454 0.333676 18.1957 0.0972851 17.8658 0.0233633C17.536 -0.0504649 17.2014 0.0530352 16.9711 0.300488C16.809 0.474676 16.6469 0.652754 16.4753 0.841285C15.8737 1.50246 15.2184 2.22157 14.4948 2.82822C14.1819 2.71024 13.863 2.60874 13.5395 2.52414L12.9242 0.925473C12.897 0.854751 12.849 0.793936 12.7865 0.751043C12.724 0.70815 12.65 0.685191 12.5742 0.685191H9.66591C9.59013 0.685191 9.51612 0.70815 9.45365 0.751043C9.39117 0.793936 9.34316 0.854751 9.31594 0.925473L8.70056 2.5241C7.84734 2.74598 7.02905 3.08522 6.26911 3.5321L4.70255 2.83633C4.63329 2.80555 4.55634 2.79648 4.48183 2.81032C4.40732 2.82416 4.33875 2.86026 4.28517 2.91386L2.22867 4.97036C2.17509 5.02395 2.13899 5.09251 2.12515 5.16702C2.1113 5.24152 2.12034 5.31848 2.15109 5.38774L2.84681 6.95416C2.39987 7.71413 2.0606 8.53248 1.83872 9.38575L0.240281 10.001C0.169552 10.0282 0.10873 10.0763 0.065835 10.1387C0.0229401 10.2012 -1.36608e-05 10.2752 6.09953e-09 10.351V13.2594C-6.48589e-07 13.3351 0.0229583 13.4091 0.0658515 13.4716C0.108745 13.5341 0.169559 13.5821 0.240281 13.6093L1.83844 14.2245C2.06032 15.078 2.39964 15.8965 2.84667 16.6566L2.15114 18.2226C2.12038 18.2919 2.11132 18.3688 2.12516 18.4433C2.139 18.5179 2.17509 18.5864 2.22867 18.64L4.28522 20.6965C4.33882 20.7501 4.40739 20.7861 4.48189 20.8C4.55639 20.8138 4.63333 20.8048 4.70259 20.774L6.2692 20.0783C7.02915 20.5252 7.84744 20.8644 8.70066 21.0863L9.31594 22.6849C9.34316 22.7556 9.39117 22.8164 9.45365 22.8593C9.51612 22.9022 9.59013 22.9252 9.66591 22.9252H12.5742C12.65 22.9252 12.724 22.9022 12.7865 22.8593C12.849 22.8164 12.897 22.7556 12.9242 22.6849L13.5393 21.0867C14.2838 20.8932 15.0021 20.6102 15.6785 20.2438V20.4737C15.6785 20.8106 15.8748 21.1018 16.1586 21.2411V21.434C16.1586 21.7758 16.3606 22.0705 16.651 22.2072V22.3943C16.651 22.8659 17.0347 23.2495 17.5062 23.2495H18.1293C18.6008 23.2495 18.9844 22.8658 18.9844 22.3943V22.2073C19.2749 22.0705 19.4768 21.7758 19.4768 21.434V21.2411C19.7607 21.1018 19.957 20.8106 19.957 20.4737V20.0058C20.0288 18.8081 20.3258 18.3003 20.613 17.8095C20.8757 17.3604 21.1475 16.8961 21.1475 16.0316C21.1475 15.338 20.934 14.6935 20.5697 14.1596L21.9997 13.6092C22.0704 13.582 22.1313 13.534 22.1741 13.4715C22.217 13.409 22.24 13.335 22.24 13.2592V10.3509C22.24 10.2751 22.2171 10.2012 22.1742 10.1387C22.1313 10.0763 22.0705 10.0283 21.9998 10.0011ZM19.653 3.45691C19.738 3.50048 19.8136 3.56048 19.8752 3.63344C19.9369 3.70639 19.9834 3.79085 20.0122 3.88193C20.099 4.15385 20.0161 4.43941 19.8235 4.62564L19.4274 3.3843C19.5051 3.39607 19.5812 3.41983 19.653 3.45691ZM17.6535 0.749457C17.669 0.749457 17.6851 0.751379 17.7018 0.755129C17.7739 0.771254 17.8199 0.813301 17.8423 0.883613L19.9427 7.46664C19.9655 7.53808 19.9509 7.60202 19.8992 7.65644C19.8476 7.71091 19.7847 7.72877 19.712 7.70993C19.5293 7.66211 19.3468 7.61519 19.1644 7.56968L17.1401 1.22505C17.266 1.08649 17.3926 0.948628 17.52 0.811473C17.5586 0.769988 17.6026 0.749457 17.6535 0.749457ZM16.5564 1.86311L18.3138 7.37097C17.2033 7.13313 16.0858 6.99288 14.919 7.11307L13.9703 4.1396C14.9509 3.53069 15.7962 2.68422 16.5564 1.86311ZM17.6831 12.7054C16.2269 12.7637 15.0091 13.7613 14.6195 15.1076C14.1693 14.2521 13.4169 13.5896 12.509 13.2505C12.9946 12.8495 13.3047 12.243 13.3047 11.5654C13.3047 10.3609 12.3247 9.38088 11.1201 9.38088C9.91552 9.38088 8.93555 10.3608 8.93555 11.5654C8.93555 12.243 9.24558 12.8494 9.73125 13.2505C8.36616 13.7602 7.3523 15.0017 7.18884 16.529C7.18325 16.5813 7.18872 16.6342 7.20491 16.6843C7.22109 16.7343 7.24763 16.7804 7.28279 16.8195C7.31796 16.8587 7.36096 16.89 7.40901 16.9114C7.45706 16.9328 7.50908 16.9439 7.56169 16.9439H14.6134C14.6542 17.0781 14.705 17.2091 14.7652 17.3359C13.683 18.0515 12.4298 18.4288 11.12 18.4288C7.46766 18.4288 4.49625 15.4574 4.49625 11.8051C4.49625 8.43789 7.02173 5.64944 10.278 5.2345C10.2627 5.26113 10.248 5.28806 10.2338 5.31527C9.95864 5.84824 9.90694 6.45461 10.0882 7.02264C10.2695 7.59072 10.6628 8.05507 11.1958 8.33022C11.5197 8.49747 11.8708 8.58213 12.2239 8.58213C12.4517 8.58213 12.6804 8.54688 12.9031 8.47577L13.0947 8.41464L13.7037 10.3234C13.8934 10.9179 14.4452 11.2979 15.0383 11.2979C15.1789 11.2979 15.3219 11.2766 15.4629 11.2316L15.8047 11.1225C15.8994 11.0923 15.9783 11.0257 16.0239 10.9373C16.0695 10.8489 16.0782 10.746 16.0479 10.6513L15.1525 7.84488C15.5815 7.81014 16.0067 7.8131 16.4297 7.84422C17.2899 8.99407 17.7439 10.36 17.7439 11.8052C17.7438 12.1063 17.7235 12.407 17.6831 12.7054ZM11.1201 13.0001C10.329 13.0001 9.6855 12.3565 9.6855 11.5655C9.6855 10.7745 10.329 10.1309 11.1201 10.1309C11.9111 10.1309 12.5546 10.7745 12.5546 11.5655C12.5546 12.3565 11.9111 13.0001 11.1201 13.0001ZM14.2337 16.194H8.00634C8.34872 14.7749 9.62086 13.7501 11.12 13.7501C12.6192 13.7501 13.8914 14.7748 14.2337 16.194ZM13.2791 4.44068L14.1675 7.22533L14.1849 7.27971L12.6751 7.76139C12.298 7.88168 11.8947 7.84713 11.5398 7.66389C11.1848 7.48066 10.923 7.17199 10.8027 6.79479C10.6824 6.41758 10.717 6.01441 10.9003 5.65943C11.0835 5.30449 11.3921 5.04269 11.7693 4.92232L13.2791 4.44068ZM15.2194 10.522C14.8823 10.6202 14.5255 10.4318 14.4183 10.0956L13.8092 8.18678L14.4129 7.99418L15.2194 10.522ZM13.1726 20.4053C13.1134 20.4193 13.0584 20.4477 13.0126 20.4877C12.9667 20.5278 12.9313 20.5785 12.9095 20.6353L12.3167 22.1753H9.92334L9.33047 20.6349C9.30861 20.5781 9.27321 20.5274 9.22736 20.4873C9.18151 20.4472 9.12657 20.4189 9.06731 20.4048C8.15746 20.1883 7.28803 19.8279 6.49186 19.3371C6.44 19.3052 6.38113 19.2863 6.32036 19.2823C6.25958 19.2782 6.19872 19.289 6.14306 19.3137L4.63345 19.9842L2.94108 18.2918L3.6113 16.7828C3.63603 16.7271 3.64682 16.6662 3.64273 16.6054C3.63865 16.5447 3.61981 16.4858 3.58786 16.4339C3.09694 15.6376 2.73643 14.7679 2.51995 13.8578C2.50585 13.7986 2.47752 13.7437 2.43743 13.6978C2.39734 13.652 2.34668 13.6166 2.28984 13.5947L0.749953 13.0019V10.6085L2.29008 10.0157C2.34692 9.99383 2.39757 9.95844 2.43766 9.9126C2.47776 9.86676 2.50608 9.81184 2.52019 9.7526C2.73667 8.84267 3.09715 7.97318 3.588 7.177C3.61994 7.12513 3.63876 7.06626 3.64283 7.00547C3.64691 6.94469 3.63612 6.88383 3.61139 6.82816L2.94108 5.31864L4.63345 3.62627L6.14302 4.29672C6.19868 4.32146 6.25953 4.33226 6.32031 4.32818C6.38108 4.32411 6.43995 4.30528 6.49181 4.27333C7.28797 3.78257 8.15741 3.42212 9.06727 3.20561C9.12652 3.19153 9.18145 3.16322 9.2273 3.12314C9.27316 3.08305 9.30855 3.03239 9.33042 2.97555L9.92334 1.43519H12.3167L12.9096 2.97555C12.9315 3.03239 12.9669 3.08305 13.0127 3.12314C13.0586 3.16322 13.1135 3.19153 13.1728 3.20561C13.3756 3.25401 13.5767 3.30962 13.7756 3.37235C13.644 3.46111 13.5092 3.54506 13.3715 3.62402L11.5414 4.20794C11.3695 4.2627 11.2049 4.33803 11.0512 4.43228C7.01691 4.46946 3.7463 7.76233 3.7463 11.8053C3.7463 15.8711 7.05417 19.179 11.1201 19.179C12.5584 19.179 13.9359 18.7707 15.1297 17.9948C15.328 18.3453 15.517 18.7442 15.6183 19.416C14.8575 19.867 14.033 20.2005 13.1726 20.4053ZM16.9325 16.3651H16.6209C16.5383 16.365 16.4591 16.3321 16.4007 16.2737C16.3422 16.2153 16.3094 16.1361 16.3093 16.0535C16.3093 15.8816 16.449 15.7419 16.6209 15.7419C16.7927 15.7419 16.9325 15.8816 16.9325 16.0535V16.3651ZM17.953 19.6186H17.6825V17.1151H17.953V19.6186ZM19.207 20.3686V20.4738C19.207 20.5308 19.1589 20.5789 19.1019 20.5789H16.5336C16.4766 20.5789 16.4284 20.5308 16.4284 20.4738V20.3686H19.207ZM18.6218 21.5392H17.0138C16.9568 21.5392 16.9086 21.4911 16.9086 21.4341V21.3289H18.7269V21.4341C18.7269 21.4911 18.6787 21.5392 18.6218 21.5392ZM18.1293 22.4995H17.5062C17.4492 22.4995 17.4011 22.4514 17.4011 22.3944V22.2892H18.2345V22.3944C18.2345 22.4514 18.1863 22.4995 18.1293 22.4995ZM19.9657 17.4308C19.6911 17.9001 19.3553 18.4739 19.2362 19.6186H18.703V17.1151H19.0147C19.6 17.1151 20.0763 16.6389 20.0763 16.0535C20.0763 15.4682 19.6 14.9919 19.0147 14.9919C18.4293 14.9919 17.953 15.4682 17.953 16.0535V16.3651H17.6825V16.0535C17.6825 15.4682 17.2063 14.9919 16.6209 14.9919C16.0355 14.9919 15.5593 15.4682 15.5593 16.0535C15.5593 16.6389 16.0355 17.1151 16.6209 17.1151H16.9325V19.6186H16.3993C16.2802 18.4739 15.9444 17.9001 15.6698 17.4308C15.4191 17.0024 15.238 16.6929 15.238 16.0317C15.238 14.6092 16.3952 13.452 17.8177 13.452C19.2402 13.452 20.3975 14.6092 20.3975 16.0317C20.3975 16.6928 20.2164 17.0024 19.9657 17.4308ZM18.703 16.3651V16.0535C18.703 15.8816 18.8428 15.7419 19.0147 15.7419C19.1865 15.7419 19.3263 15.8816 19.3263 16.0535C19.3262 16.1361 19.2933 16.2153 19.2349 16.2737C19.1765 16.3321 19.0973 16.365 19.0147 16.3651H18.703ZM21.4901 13.0018L20.0443 13.5583C19.5989 13.1569 19.0447 12.8745 18.4321 12.7597C18.4731 12.4432 18.4937 12.1244 18.4938 11.8053C18.4938 10.4284 18.1234 9.11618 17.4162 7.9638C18.033 8.06505 18.648 8.21036 19.2665 8.36922C19.4556 8.81703 19.6073 9.27974 19.7201 9.7526C19.7342 9.81185 19.7625 9.86678 19.8026 9.91263C19.8427 9.95848 19.8933 9.99388 19.9502 10.0158L21.4901 10.6085V13.0018ZM22.5873 5.85269C22.5647 5.89645 22.5337 5.93534 22.4961 5.96712C22.4585 5.99891 22.415 6.02297 22.368 6.03794C22.3211 6.0529 22.2717 6.05848 22.2226 6.05434C22.1736 6.05021 22.1258 6.03645 22.082 6.01385L21.391 5.65713C21.3026 5.6115 21.236 5.53264 21.2058 5.43789C21.1756 5.34315 21.1842 5.24028 21.2298 5.15191C21.2524 5.10814 21.2834 5.06926 21.321 5.03747C21.3586 5.00568 21.4021 4.98162 21.449 4.96665C21.496 4.95168 21.5454 4.94611 21.5944 4.95025C21.6435 4.95438 21.6913 4.96815 21.735 4.99075L22.4261 5.34747C22.4698 5.37005 22.5087 5.40103 22.5405 5.43865C22.5723 5.47626 22.5964 5.51977 22.6113 5.56669C22.6263 5.6136 22.6319 5.66301 22.6278 5.71208C22.6236 5.76116 22.6099 5.80894 22.5873 5.85269ZM22.653 3.43291L21.9122 3.66925C21.8753 3.68106 21.8369 3.68709 21.7981 3.68711C21.7086 3.68715 21.6221 3.65518 21.5541 3.59697C21.4861 3.53877 21.4412 3.45818 21.4275 3.36975C21.4137 3.28132 21.432 3.19089 21.4791 3.11478C21.5262 3.03868 21.599 2.98193 21.6842 2.95479L22.4251 2.71844C22.5195 2.6895 22.6215 2.69894 22.7089 2.74472C22.7964 2.7905 22.8623 2.86893 22.8923 2.96298C22.9223 3.05703 22.914 3.15912 22.8692 3.2471C22.8244 3.33508 22.7468 3.40184 22.653 3.43291ZM20.1795 1.57591L20.5362 0.884926C20.6312 0.700895 20.8575 0.628613 21.0414 0.723769C21.1298 0.769399 21.1964 0.84826 21.2266 0.943005C21.2569 1.03775 21.2482 1.14062 21.2026 1.22899L20.8458 1.91997C20.8142 1.98118 20.7664 2.03252 20.7076 2.06834C20.6488 2.10416 20.5812 2.12308 20.5123 2.12304C20.4525 2.12303 20.3937 2.10866 20.3406 2.08113C20.2522 2.0355 20.1856 1.95664 20.1554 1.86189C20.1252 1.76715 20.1338 1.66428 20.1795 1.57591Z" fill="#5E5F60"/>
</svg>
