<svg width="24" height="24" viewBox="0 0 24 24" fill="none" xmlns="http://www.w3.org/2000/svg">
<g clip-path="url(#clip0_297_4094)">
<path d="M16.5382 7.32359C15.3673 5.2945 14.1054 3.47268 12.9891 2.19632C11.7382 0.767228 10.8654 0.221774 10.3164 0.538138C9.7709 0.854501 9.80363 1.87996 10.4145 3.67996C10.96 5.28359 11.9091 7.28723 13.08 9.31632C14.2509 11.3454 15.5127 13.1672 16.6291 14.4436C17.6509 15.6109 18.4218 16.189 18.9673 16.189C19.0909 16.189 19.2 16.16 19.3018 16.1018C19.8473 15.7854 19.8145 14.76 19.2036 12.96C18.6582 11.3563 17.7127 9.35632 16.5382 7.32359ZM12.5164 7.13087C13.5091 6.78177 14.6364 7.17814 15.1782 8.11268C15.7164 9.04723 15.4982 10.2218 14.6982 10.9054C14.3164 10.3127 13.9345 9.69086 13.56 9.04723C13.1854 8.39996 12.8364 7.75632 12.5164 7.13087ZM19.0327 15.629C18.9164 15.6981 18.3273 15.5527 17.0436 14.0836C16.3964 13.3454 15.6982 12.4145 15 11.3636C16.04 10.5163 16.3345 9.01814 15.6509 7.83632C14.9673 6.65086 13.5236 6.15632 12.2691 6.63632C11.7127 5.50541 11.2545 4.43632 10.9345 3.50541C10.3054 1.65814 10.4727 1.07996 10.5927 1.01086C10.6131 1.00099 10.6355 0.996004 10.6582 0.996319C10.8654 0.996319 11.4545 1.26541 12.5818 2.55268C13.6764 3.80359 14.9127 5.59268 16.0691 7.59268C17.2254 9.59268 18.1564 11.56 18.6909 13.1309C19.32 14.9818 19.1491 15.5636 19.0327 15.629ZM18.7309 6.22905C18.7818 6.31632 18.8727 6.36723 18.9673 6.36723C19.0145 6.36723 19.0618 6.35632 19.1018 6.33086L22.04 4.63268C22.1709 4.55632 22.2145 4.38905 22.1382 4.26177C22.1205 4.23075 22.0968 4.20357 22.0685 4.18179C22.0402 4.16002 22.0078 4.1441 21.9733 4.13497C21.9388 4.12583 21.9028 4.12365 21.8674 4.12857C21.832 4.13348 21.798 4.14539 21.7673 4.16359L18.8291 5.86177C18.6982 5.9345 18.6545 6.09814 18.7309 6.22905ZM23.2654 8.82905L19.8764 8.97814C19.7273 8.98541 19.6109 9.11268 19.6145 9.26177C19.6218 9.40723 19.7418 9.52359 19.8873 9.52359H19.8982L23.2873 9.3745C23.4364 9.36723 23.5527 9.23996 23.5491 9.09087C23.5477 9.05504 23.5392 9.01985 23.5242 8.98729C23.5092 8.95474 23.4879 8.92546 23.4616 8.90115C23.4352 8.87683 23.4043 8.85794 23.3707 8.84557C23.337 8.8332 23.3013 8.82759 23.2654 8.82905ZM16.5491 3.94905C16.5964 3.97814 16.6436 3.99268 16.6945 3.99268C16.7854 3.99268 16.8727 3.94905 16.9236 3.86541L18.7491 1.00359C18.8291 0.876319 18.7927 0.709047 18.6654 0.62541C18.6041 0.586817 18.53 0.573954 18.4592 0.589609C18.3884 0.605263 18.3266 0.648174 18.2873 0.709047L16.4618 3.57086C16.4237 3.63272 16.4116 3.70708 16.4279 3.77785C16.4442 3.84863 16.4878 3.91013 16.5491 3.94905Z" fill="#5E5F60"/>
<path d="M17.4327 16.0654C16.6836 16.0581 15.8036 15.8763 14.9563 15.6981C14.5563 15.6145 14.1563 15.5309 13.7782 15.469C11.5163 14.9781 9.59997 15.029 8.0727 15.6181L6.59633 13.0618L5.11997 10.5054C6.39633 9.47995 7.39633 7.84359 8.09815 5.65086C8.23633 5.27995 8.36361 4.8945 8.49088 4.50541C8.76361 3.67995 9.0436 2.82541 9.41451 2.1745C9.48724 2.04359 9.44361 1.87632 9.3127 1.80359C9.18179 1.73086 9.01451 1.7745 8.94179 1.90541C8.54542 2.60359 8.25451 3.48359 7.97451 4.3345C7.84724 4.71632 7.7236 5.09814 7.58542 5.47268C6.88361 7.67268 5.8836 9.26541 4.61451 10.2072L2.18179 11.6181C1.38179 12.08 0.807241 12.8254 0.567241 13.72C0.327241 14.6145 0.450877 15.5454 0.912695 16.3454C1.37211 17.1397 2.12778 17.7193 3.01397 17.9572C3.90016 18.1952 4.84453 18.0719 5.63997 17.6145L8.06906 16.2109C9.51997 15.5818 11.4 15.5127 13.6691 16.0072C14.0545 16.0727 14.4472 16.1563 14.84 16.2363C15.7163 16.4181 16.6218 16.6072 17.4254 16.6145H17.4291C17.5781 16.6145 17.7018 16.4945 17.7018 16.3454C17.703 16.2727 17.6753 16.2024 17.6249 16.15C17.5745 16.0975 17.5054 16.0671 17.4327 16.0654ZM5.37088 17.1418C3.97815 17.9454 2.1927 17.4654 1.38906 16.0727C1.19634 15.7419 1.07137 15.376 1.02142 14.9965C0.971478 14.6169 0.997561 14.2312 1.09815 13.8618C1.29815 13.109 1.78179 12.48 2.45815 12.0909L4.66906 10.8145L6.12724 13.3381L7.58542 15.8618L5.37088 17.1418Z" fill="#5E5F60"/>
<path d="M8.1781 17.1746C8.16882 17.1399 8.1528 17.1075 8.13096 17.079C8.10911 17.0506 8.08187 17.0267 8.0508 17.0088C8.01973 16.9909 7.98543 16.9793 7.94986 16.9747C7.9143 16.9701 7.87818 16.9725 7.84355 16.9818C7.6981 17.0182 7.61083 17.1709 7.64719 17.3164C7.99992 18.6509 8.66901 19.8946 9.58537 20.9091C9.83265 21.1855 9.94174 21.5528 9.88355 21.92C9.85539 22.1045 9.78579 22.2801 9.67998 22.4338C9.57417 22.5875 9.4349 22.7152 9.27265 22.8073L9.23265 22.8291C8.75992 23.1018 8.17446 23.04 7.77446 22.6728C6.60355 21.6 5.78174 20.2037 5.39628 18.6437C5.38769 18.6088 5.37231 18.576 5.35103 18.5471C5.32975 18.5181 5.30298 18.4937 5.27225 18.4751C5.24152 18.4566 5.20744 18.4442 5.17194 18.4388C5.13644 18.4334 5.10023 18.4351 5.06537 18.4437C5.03051 18.4523 4.99769 18.4676 4.96877 18.4889C4.93985 18.5102 4.91541 18.537 4.89684 18.5677C4.87827 18.5984 4.86593 18.6325 4.86053 18.668C4.85513 18.7035 4.85678 18.7397 4.86537 18.7746C5.27628 20.44 6.15628 21.9309 7.40355 23.0764C7.74174 23.3855 8.16719 23.5455 8.60355 23.5455C8.91265 23.5455 9.22174 23.4655 9.50537 23.3018L9.36719 23.0655L9.54174 23.28C10.0145 23.0073 10.3345 22.5418 10.4181 22.0037C10.5017 21.4728 10.3454 20.9382 9.98537 20.5418C9.13446 19.5928 8.50901 18.4255 8.1781 17.1746Z" fill="#5E5F60"/>
</g>
<defs>
<clipPath id="clip0_297_4094">
<rect width="24" height="24" fill="white"/>
</clipPath>
</defs>
</svg>
