<svg width="24" height="24" viewBox="0 0 24 24" fill="none" xmlns="http://www.w3.org/2000/svg">
<path d="M12 0.046875C5.39292 0.046875 0.046875 5.39381 0.046875 12C0.046875 18.6071 5.39381 23.9531 12 23.9531C18.6071 23.9531 23.9531 18.6062 23.9531 12C23.9531 5.39292 18.6062 0.046875 12 0.046875ZM12 23.0156C5.92598 23.0156 0.984375 18.074 0.984375 12C0.984375 5.92598 5.92598 0.984375 12 0.984375C18.074 0.984375 23.0156 5.92598 23.0156 12C23.0156 18.074 18.074 23.0156 12 23.0156Z" fill="#E91938"/>
<path d="M19.1818 16.8616L7.13841 4.81823C8.57456 3.84155 10.2442 3.32812 12 3.32812C16.7817 3.32812 20.6719 7.21828 20.6719 12C20.6719 13.7557 20.1585 15.4254 19.1818 16.8616ZM16.8616 19.1818C15.4254 20.1585 13.7557 20.6719 12 20.6719C7.21828 20.6719 3.32812 16.7817 3.32812 12C3.32812 10.2442 3.84155 8.57456 4.81823 7.13841L16.8616 19.1818Z" fill="#E91938"/>
</svg>
