<svg width="25" height="24" viewBox="0 0 25 24" fill="none" xmlns="http://www.w3.org/2000/svg">
<g clip-path="url(#clip0_304_15059)">
<path d="M12.6528 0.000976563C12.2226 0.000976563 11.7927 0.0241032 11.3649 0.0702063C10.9729 0.110252 10.5856 0.175928 10.2036 0.25562C10.1295 0.271141 10.0555 0.287427 9.98172 0.304476C7.73078 0.816971 5.67542 1.96784 4.06211 3.6191C3.91131 3.77369 3.76443 3.93206 3.6216 4.09404C-0.736423 9.09721 -0.21342 16.6859 4.78979 21.044C9.57971 25.2162 16.7898 24.9386 21.2447 20.4104C21.3956 20.256 21.5425 20.0976 21.6852 19.9355C23.6085 17.7453 24.6683 14.9296 24.6666 12.0148C24.6666 5.37967 19.2878 0.000926505 12.6528 0.000976563ZM4.59592 4.21979C4.65919 4.15411 4.72487 4.09124 4.78934 4.02757C4.86383 3.95428 4.93791 3.8806 5.014 3.80971C5.08088 3.74724 5.14976 3.68717 5.21824 3.6263C5.29553 3.55782 5.37242 3.48935 5.45171 3.42327C5.52139 3.3644 5.59307 3.30794 5.66435 3.25107C5.74444 3.187 5.82454 3.12292 5.90703 3.06125C5.9799 3.00656 6.05373 2.95316 6.12849 2.90107C6.21138 2.8418 6.29468 2.78093 6.37917 2.72567C6.45489 2.67463 6.53125 2.62457 6.60824 2.57549C6.69349 2.52053 6.77974 2.46713 6.86694 2.41531C7.0326 2.31642 7.20043 2.22122 7.37032 2.12978C7.45041 2.08708 7.5305 2.04528 7.61059 2.00443C7.70197 1.95851 7.79396 1.91379 7.88651 1.87028C7.9666 1.83224 8.0499 1.79419 8.13239 1.75815C8.2265 1.7181 8.32181 1.67806 8.41712 1.63801C8.50002 1.60397 8.58251 1.57074 8.66621 1.5387C8.76312 1.50186 8.86123 1.46742 8.95935 1.43298C9.04313 1.40338 9.12724 1.37468 9.21164 1.34688C9.31135 1.31484 9.41187 1.28521 9.51278 1.25597C9.59728 1.23154 9.68098 1.20632 9.76588 1.18349C9.79831 1.17508 9.83075 1.16827 9.86319 1.15986C8.67781 2.31086 7.79816 3.73928 7.30384 5.31585C6.35335 5.06517 5.4332 4.71105 4.55988 4.25983C4.57309 4.24582 4.58431 4.2318 4.59592 4.21979ZM4.02006 4.86453C4.98202 5.38575 6.0021 5.79168 7.05916 6.07392C6.54094 7.87579 6.26897 9.73949 6.25063 11.6143H1.4491C1.53633 9.14203 2.44045 6.76837 4.02006 4.86453ZM4.02006 19.165C2.44054 17.2611 1.53644 14.8875 1.4491 12.4152H6.25063C6.26894 14.29 6.54092 16.1538 7.05916 17.9556C6.00213 18.2379 4.98205 18.6439 4.02006 19.165ZM9.76347 22.8476C9.68258 22.8272 9.59888 22.8008 9.51559 22.7764C9.41427 22.7467 9.31255 22.7171 9.21244 22.6847C9.12794 22.6574 9.04465 22.6282 8.96135 22.599C8.86266 22.5652 8.76454 22.5298 8.66701 22.4928C8.58399 22.461 8.50135 22.4282 8.41912 22.3943C8.32341 22.3543 8.2277 22.3142 8.13279 22.2742C8.05103 22.2381 7.96973 22.201 7.88891 22.1629C7.79561 22.1188 7.7027 22.074 7.60859 22.0275C7.5285 21.9875 7.44841 21.9474 7.36831 21.9038C7.27781 21.8553 7.18811 21.8056 7.0984 21.7544C7.01831 21.7099 6.94222 21.6643 6.86493 21.6178C6.77705 21.5649 6.69001 21.5105 6.60383 21.4548C6.52775 21.4064 6.45166 21.3571 6.37677 21.3067C6.29145 21.2486 6.20694 21.1893 6.12328 21.1289C6.05 21.0764 5.97671 21.0239 5.90463 20.9687C5.82197 20.906 5.74027 20.842 5.65955 20.7769C5.58866 20.7204 5.51818 20.6643 5.4489 20.6063C5.36881 20.5398 5.29152 20.4705 5.21383 20.4016C5.14575 20.3412 5.07727 20.2815 5.0108 20.2198C4.93431 20.1485 4.86022 20.0745 4.78574 20.0012C4.72126 19.9375 4.65559 19.8746 4.59232 19.8093C4.5807 19.7969 4.56949 19.7841 4.55788 19.7721C5.43115 19.3207 6.3513 18.9664 7.30184 18.7157C7.79625 20.2922 8.67589 21.7206 9.86119 22.8717C9.82875 22.8633 9.79591 22.8565 9.76347 22.8476ZM12.2523 23.1961C10.5388 22.9526 9.03664 21.1641 8.09155 18.5231C9.45794 18.2171 10.8523 18.053 12.2523 18.0333V23.1961ZM12.2523 17.2324C10.7672 17.2519 9.28818 17.4283 7.84006 17.7586C7.33722 16.0212 7.07198 14.2238 7.05155 12.4152H12.2523V17.2324ZM12.2523 11.6143H7.05155C7.07193 9.80576 7.33717 8.0083 7.84006 6.27095C9.28819 6.60119 10.7672 6.77757 12.2523 6.79716V11.6143ZM12.2523 5.99623C10.8522 5.97671 9.45791 5.81258 8.09155 5.50647C9.03664 2.86543 10.5388 1.07697 12.2523 0.833486V5.99623ZM21.2855 4.86453C22.8651 6.76842 23.7692 9.14205 23.8565 11.6143H19.055C19.0367 9.73949 18.7647 7.87578 18.2464 6.07392C19.3035 5.79156 20.3235 5.38563 21.2855 4.86453ZM15.5389 1.18149C15.623 1.20231 15.7067 1.22874 15.79 1.25317C15.8913 1.2828 15.9931 1.31244 16.0932 1.34487C16.1777 1.37211 16.261 1.40134 16.3443 1.43057C16.4428 1.46461 16.5413 1.49945 16.6386 1.5367C16.7219 1.56833 16.804 1.60157 16.8865 1.63521C16.9822 1.67526 17.0779 1.7153 17.1728 1.75535C17.2545 1.79139 17.3358 1.82848 17.4167 1.86668C17.51 1.91073 17.6029 1.95558 17.697 2.00203C17.7771 2.04208 17.8572 2.08212 17.9373 2.12577C18.0278 2.17423 18.1175 2.22389 18.2072 2.27515C18.2873 2.3196 18.3634 2.36525 18.4407 2.4117C18.5286 2.46466 18.6156 2.519 18.7018 2.57469C18.7779 2.62315 18.8539 2.6724 18.9288 2.72286C19.014 2.78081 19.0984 2.83995 19.1819 2.90027C19.2559 2.95259 19.329 3.00599 19.4014 3.06045C19.4839 3.12252 19.5648 3.187 19.6461 3.25187C19.7165 3.30794 19.7874 3.364 19.8567 3.42247C19.9368 3.48895 20.0141 3.55822 20.0918 3.6271C20.1599 3.68757 20.2283 3.74724 20.2948 3.80891C20.3713 3.8802 20.4454 3.95428 20.5199 4.02757C20.5843 4.09124 20.65 4.15411 20.7133 4.21939C20.7249 4.2318 20.7361 4.24462 20.7477 4.25663C19.8745 4.70805 18.9543 5.06231 18.0038 5.31305C17.5084 3.73633 16.6276 2.30804 15.4412 1.15746C15.4737 1.16587 15.5065 1.17268 15.5389 1.18149ZM13.0533 0.833486C14.7668 1.07697 16.269 2.86543 17.2141 5.50647C15.8477 5.81243 14.4534 5.97655 13.0533 5.99623V0.833486ZM13.0533 6.79716C14.5385 6.77762 16.0174 6.60124 17.4655 6.27095C17.9684 8.00831 18.2336 9.80576 18.2541 11.6143H13.0533V6.79716ZM13.0533 12.4152H18.2541C18.2337 14.2238 17.9684 16.0212 17.4655 17.7586C16.0174 17.4283 14.5384 17.252 13.0533 17.2324V12.4152ZM13.0533 23.1961V18.0333C14.4534 18.0528 15.8477 18.217 17.2141 18.5231C16.269 21.1641 14.7668 22.9526 13.0533 23.1961ZM20.7097 19.8097C20.6464 19.875 20.5811 19.9379 20.5167 20.0016C20.4422 20.0749 20.3677 20.1489 20.2912 20.2202C20.2247 20.2823 20.1562 20.3404 20.0882 20.4024C20.0105 20.4713 19.9332 20.5402 19.8539 20.6067C19.7838 20.6651 19.7125 20.7216 19.6413 20.7785C19.5612 20.8425 19.4811 20.9066 19.3986 20.9683C19.3257 21.023 19.2519 21.0764 19.1771 21.1285C19.0942 21.1877 19.0109 21.2486 18.9264 21.3039C18.8508 21.3549 18.7744 21.4048 18.6974 21.4536C18.612 21.5087 18.5257 21.5621 18.4383 21.6138C18.3582 21.6607 18.2817 21.7063 18.2028 21.7516C18.0358 21.8467 17.8664 21.9378 17.695 22.0247C17.6036 22.0706 17.5117 22.1153 17.4191 22.1589C17.339 22.1969 17.2557 22.2349 17.1732 22.271C17.0791 22.311 16.9838 22.3511 16.8885 22.3911C16.8056 22.4248 16.7231 22.4584 16.6398 22.49C16.5421 22.5273 16.444 22.5621 16.3455 22.5962C16.2621 22.6258 16.1784 22.6544 16.0944 22.6819C15.9943 22.7143 15.8941 22.7439 15.792 22.7732C15.7083 22.798 15.6242 22.8228 15.5397 22.8456C15.5073 22.8541 15.4749 22.8609 15.4424 22.8693C16.6278 21.7183 17.5074 20.2899 18.0018 18.7133C18.9523 18.964 19.8724 19.3181 20.7457 19.7693C20.7325 19.7837 20.7213 19.7977 20.7097 19.8097ZM21.2855 19.165C20.3236 18.6438 19.3035 18.2379 18.2464 17.9556C18.7647 16.1537 19.0366 14.29 19.055 12.4152H23.8565C23.7693 14.8875 22.8652 17.2612 21.2855 19.165Z" fill="#5E5F60"/>
</g>
<defs>
<clipPath id="clip0_304_15059">
<rect width="24" height="24" fill="white" transform="translate(0.666626)"/>
</clipPath>
</defs>
</svg>
