<svg width="20" height="20" viewBox="0 0 20 20" fill="none" xmlns="http://www.w3.org/2000/svg">
<path d="M6.66675 3.33341V13.3334C6.66675 13.7754 6.84234 14.1994 7.1549 14.5119C7.46746 14.8245 7.89139 15.0001 8.33341 15.0001H15.0001C15.4421 15.0001 15.866 14.8245 16.1786 14.5119C16.4912 14.1994 16.6667 13.7754 16.6667 13.3334V6.03508C16.6667 5.81305 16.6223 5.59326 16.5362 5.38862C16.45 5.18398 16.3239 4.99862 16.1651 4.84341L13.4026 2.14175C13.0912 1.8373 12.6731 1.6668 12.2376 1.66675H8.33341C7.89139 1.66675 7.46746 1.84234 7.1549 2.1549C6.84234 2.46746 6.66675 2.89139 6.66675 3.33341Z" stroke="#101010" stroke-width="1.66667" stroke-linecap="round" stroke-linejoin="round"/>
<path d="M13.3333 15V16.6667C13.3333 17.1087 13.1577 17.5327 12.8451 17.8452C12.5325 18.1578 12.1086 18.3334 11.6666 18.3334H4.99992C4.55789 18.3334 4.13397 18.1578 3.82141 17.8452C3.50885 17.5327 3.33325 17.1087 3.33325 16.6667V7.50004C3.33325 7.05801 3.50885 6.63409 3.82141 6.32153C4.13397 6.00897 4.55789 5.83337 4.99992 5.83337H6.66659" stroke="#101010" stroke-width="1.66667" stroke-linecap="round" stroke-linejoin="round"/>
</svg>
