<svg width="25" height="24" viewBox="0 0 25 24" fill="none" xmlns="http://www.w3.org/2000/svg">
<path d="M13.4359 8.92308C13.4359 8.49824 13.0915 8.15385 12.6666 8.15385C12.2418 8.15385 11.8974 8.49824 11.8974 8.92308V11.2308H9.5897C9.16487 11.2308 8.82047 11.5752 8.82047 12C8.82047 12.4248 9.16487 12.7692 9.5897 12.7692H11.8974V15.0769C11.8974 15.5018 12.2418 15.8462 12.6666 15.8462C13.0915 15.8462 13.4359 15.5018 13.4359 15.0769V12.7692H15.7435C16.1684 12.7692 16.5128 12.4248 16.5128 12C16.5128 11.5752 16.1684 11.2308 15.7435 11.2308H13.4359V8.92308Z" fill="#5E5F60"/>
<path fill-rule="evenodd" clip-rule="evenodd" d="M17.2446 2.1269C16.0732 1.99999 14.5967 1.99999 12.713 2H12.6202C10.7366 1.99999 9.26008 1.99999 8.08865 2.1269C6.89323 2.25642 5.92464 2.52546 5.09764 3.12631C4.59698 3.49006 4.15669 3.93035 3.79294 4.43101C3.19209 5.25801 2.92304 6.2266 2.79353 7.42203C2.66661 8.59345 2.66662 10.07 2.66663 11.9536V12.0464C2.66662 13.93 2.66661 15.4066 2.79353 16.578C2.92304 17.7734 3.19209 18.742 3.79294 19.569C4.15669 20.0697 4.59697 20.5099 5.09764 20.8737C5.92464 21.4745 6.89323 21.7436 8.08865 21.8731C9.26005 22 10.7365 22 12.6201 22H12.7131C14.5966 22 16.0732 22 17.2446 21.8731C18.44 21.7436 19.4086 21.4745 20.2356 20.8737C20.7363 20.5099 21.1766 20.0697 21.5403 19.569C22.1412 18.742 22.4102 17.7734 22.5397 16.578C22.6666 15.4066 22.6666 13.9301 22.6666 12.0465V11.9536C22.6666 10.07 22.6666 8.59343 22.5397 7.42203C22.4102 6.2266 22.1412 5.25801 21.5403 4.43101C21.1766 3.93035 20.7363 3.49006 20.2356 3.12631C19.4086 2.52546 18.44 2.25642 17.2446 2.1269ZM6.00192 4.37095C6.52295 3.9924 7.18984 3.77175 8.25436 3.65641C9.33329 3.53952 10.7266 3.53846 12.6666 3.53846C14.6067 3.53846 16 3.53952 17.0789 3.65641C18.1434 3.77175 18.8103 3.9924 19.3313 4.37095C19.7014 4.63981 20.0268 4.96524 20.2957 5.3353C20.6742 5.85633 20.8949 6.52321 21.0102 7.58774C21.1271 8.66666 21.1282 10.0599 21.1282 12C21.1282 13.9401 21.1271 15.3333 21.0102 16.4123C20.8949 17.4768 20.6742 18.1437 20.2957 18.6647C20.0268 19.0348 19.7014 19.3602 19.3313 19.6291C18.8103 20.0076 18.1434 20.2283 17.0789 20.3436C16 20.4605 14.6067 20.4615 12.6666 20.4615C10.7266 20.4615 9.33329 20.4605 8.25436 20.3436C7.18984 20.2283 6.52295 20.0076 6.00192 19.6291C5.63187 19.3602 5.30644 19.0348 5.03758 18.6647C4.65903 18.1437 4.43837 17.4768 4.32304 16.4123C4.20614 15.3333 4.20509 13.9401 4.20509 12C4.20509 10.0599 4.20614 8.66666 4.32304 7.58774C4.43837 6.52321 4.65903 5.85633 5.03758 5.3353C5.30644 4.96524 5.63187 4.63981 6.00192 4.37095Z" fill="#5E5F60"/>
</svg>
