<svg width="20" height="20" viewBox="0 0 20 20" fill="none" xmlns="http://www.w3.org/2000/svg">
<g clip-path="url(#clip0_494_1086)">
<path fill-rule="evenodd" clip-rule="evenodd" d="M0.833252 4.83338C0.833252 3.43338 0.833252 2.73338 1.10575 2.20004C1.34628 1.73077 1.72815 1.34891 2.19742 1.10838C2.73242 0.835876 3.43075 0.835876 4.83075 0.835876H15.1641C16.5641 0.835876 17.2641 0.835876 17.7974 1.10838C18.2667 1.34891 18.6486 1.73077 18.8891 2.20004C19.1616 2.73504 19.1616 3.43338 19.1616 4.83338V15.1667C19.1616 16.5667 19.1616 17.2667 18.8891 17.8C18.6495 18.27 18.2674 18.6521 17.7974 18.8917C17.2624 19.1642 16.5641 19.1642 15.1641 19.1642H4.83075C3.43075 19.1642 2.73075 19.1642 2.19742 18.8917C1.72747 18.6521 1.34536 18.27 1.10575 17.8C0.833252 17.265 0.833252 16.5667 0.833252 15.1667V4.83338ZM4.83325 1.66671H15.1666C15.8808 1.66671 16.3666 1.66671 16.7416 1.69838C17.1066 1.72754 17.2941 1.78171 17.4241 1.84838C17.7374 2.00838 17.9924 2.26338 18.1524 2.57671C18.2191 2.70671 18.2733 2.89338 18.3024 3.25921C18.3333 3.63421 18.3341 4.11754 18.3341 4.83421V15.1675C18.3341 15.8817 18.3333 16.3675 18.3024 16.7425C18.2724 17.1075 18.2183 17.295 18.1524 17.425C17.9926 17.7386 17.7377 17.9936 17.4241 18.1534C17.2941 18.22 17.1066 18.2742 16.7416 18.3034C16.3666 18.3334 15.8833 18.3342 15.1666 18.3342H12.8499V11.4259H14.7916L15.0966 9.29254H12.8549V8.37588C12.8549 8.22032 12.8652 8.07949 12.8858 7.95338C12.9749 7.41754 13.2683 7.15338 13.8858 7.15338H15.1191V5.11171L15.1058 5.10921C14.8841 5.07921 14.4283 5.01754 13.5808 5.01754C11.7724 5.01754 10.7141 5.96754 10.7141 8.14254V9.29254H8.58075V11.4259H10.7141V18.3342H4.83909C4.12492 18.3342 3.63909 18.3342 3.26409 18.3025C2.89909 18.2734 2.71159 18.2192 2.58159 18.1525C2.268 17.9928 2.01304 17.7378 1.85325 17.4242C1.78659 17.2942 1.73242 17.1075 1.70325 16.7417C1.67242 16.3667 1.67242 15.8834 1.67242 15.1667V4.83338C1.67242 4.11921 1.67242 3.63338 1.70325 3.25838C1.73325 2.89338 1.78742 2.70588 1.85325 2.57588C2.01325 2.26254 2.26825 2.00754 2.58159 1.84754C2.71159 1.78088 2.89909 1.72671 3.26492 1.69754C3.63992 1.66754 4.12325 1.66671 4.83992 1.66671H4.83325Z" fill="#101010"/>
</g>
<defs>
<clipPath id="clip0_494_1086">
<rect width="20" height="20" fill="white"/>
</clipPath>
</defs>
</svg>
