<svg width="19" height="18" viewBox="0 0 19 18" fill="none" xmlns="http://www.w3.org/2000/svg">
<path d="M17.5248 8.68241H6.27705M2.30686 8.68241H0.682739M2.30686 8.68241C2.30686 8.15605 2.51596 7.65125 2.88815 7.27906C3.26034 6.90686 3.76514 6.69777 4.2915 6.69777C4.81786 6.69777 5.32266 6.90686 5.69485 7.27906C6.06704 7.65125 6.27614 8.15605 6.27614 8.68241C6.27614 9.20876 6.06704 9.71356 5.69485 10.0858C5.32266 10.4579 4.81786 10.667 4.2915 10.667C3.76514 10.667 3.26034 10.4579 2.88815 10.0858C2.51596 9.71356 2.30686 9.20876 2.30686 8.68241ZM17.5248 14.6973H12.292M12.292 14.6973C12.292 15.2238 12.0824 15.7292 11.7101 16.1014C11.3378 16.4737 10.8329 16.6829 10.3064 16.6829C9.78005 16.6829 9.27525 16.4729 8.90306 16.1007C8.53087 15.7285 8.32177 15.2237 8.32177 14.6973M12.292 14.6973C12.292 14.1708 12.0824 13.6664 11.7101 13.2941C11.3378 12.9218 10.8329 12.7127 10.3064 12.7127C9.78005 12.7127 9.27525 12.9218 8.90306 13.294C8.53087 13.6662 8.32177 14.171 8.32177 14.6973M8.32177 14.6973H0.682739M17.5248 2.6675H14.6981M10.7279 2.6675H0.682739M10.7279 2.6675C10.7279 2.14114 10.937 1.63634 11.3092 1.26415C11.6814 0.891956 12.1862 0.682861 12.7126 0.682861C12.9732 0.682861 13.2313 0.734196 13.472 0.833933C13.7128 0.93367 13.9316 1.07986 14.1159 1.26415C14.3002 1.44844 14.4464 1.66722 14.5461 1.90801C14.6459 2.1488 14.6972 2.40687 14.6972 2.6675C14.6972 2.92812 14.6459 3.1862 14.5461 3.42699C14.4464 3.66777 14.3002 3.88656 14.1159 4.07085C13.9316 4.25514 13.7128 4.40133 13.472 4.50106C13.2313 4.6008 12.9732 4.65214 12.7126 4.65214C12.1862 4.65214 11.6814 4.44304 11.3092 4.07085C10.937 3.69866 10.7279 3.19386 10.7279 2.6675Z" stroke="#101010" stroke-width="1.36558" stroke-miterlimit="10" stroke-linecap="round"/>
</svg>
