<svg width="24" height="24" viewBox="0 0 24 24" fill="none" xmlns="http://www.w3.org/2000/svg">
<g clip-path="url(#clip0_499_3584)">
<path d="M12 16.8C11.7351 16.8 11.52 17.0151 11.52 17.28C11.52 17.5449 11.7351 17.76 12 17.76C12.265 17.76 12.48 17.5449 12.48 17.28C12.48 17.0151 12.265 16.8 12 16.8Z" fill="black"/>
<path d="M12 18.24C12.5302 18.24 12.96 17.8102 12.96 17.28C12.96 16.7498 12.5302 16.32 12 16.32C11.4698 16.32 11.04 16.7498 11.04 17.28C11.04 17.8102 11.4698 18.24 12 18.24Z" fill="black"/>
<path d="M12 0C5.3827 0 0 5.3827 0 12C0 18.6173 5.3827 24 12 24C18.6173 24 24 18.6173 24 12C24 5.3827 18.6173 0 12 0ZM12 23.04C5.91263 23.04 0.96 18.0874 0.96 12C0.96 5.91263 5.91263 0.96 12 0.96C18.0874 0.96 23.04 5.91263 23.04 12C23.04 18.0874 18.0874 23.04 12 23.04Z" fill="black"/>
<path d="M15.3049 8.51424C15.0678 7.16161 13.9571 6.05086 12.6044 5.81279C11.607 5.63808 10.6009 5.90494 9.83965 6.54526C9.07741 7.18655 8.63965 8.12447 8.63965 9.11996C8.63965 9.3849 8.85471 9.59996 9.11965 9.59996C9.38459 9.59996 9.59965 9.3849 9.59965 9.11996C9.59965 8.40858 9.91263 7.73851 10.4579 7.28157C11.0108 6.81788 11.7155 6.63165 12.4393 6.75933C13.4013 6.92827 14.1913 7.71933 14.3613 8.68126C14.5436 9.72188 14.0713 10.7203 13.1565 11.2233C12.1312 11.7888 11.5197 12.7651 11.5197 13.92V14.88C11.5197 15.1449 11.7348 15.36 11.9997 15.36C12.2646 15.36 12.4797 15.1449 12.4778 14.88V13.8355C12.4778 13.1193 12.905 12.4569 13.6182 12.0633C14.8786 11.3702 15.5564 9.94369 15.3049 8.51424Z" fill="black"/>
</g>
<defs>
<clipPath id="clip0_499_3584">
<rect width="24" height="24" fill="white"/>
</clipPath>
</defs>
</svg>
