<svg width="18" height="12" viewBox="0 0 18 12" fill="none" xmlns="http://www.w3.org/2000/svg">
<path d="M1 12C0.71667 12 0.479337 11.904 0.288004 11.712C0.0966702 11.52 0.000670115 11.2827 3.44827e-06 11C-0.000663218 10.7173 0.0953369 10.48 0.288004 10.288C0.48067 10.096 0.718003 9.99999 1 9.99999H17C17.2833 9.99999 17.521 10.096 17.713 10.288C17.905 10.48 18.0007 10.7173 18 11C17.9993 11.2827 17.9033 11.5203 17.712 11.713C17.5207 11.9057 17.2833 12.0013 17 12H1ZM1 6.99999C0.71667 6.99999 0.479337 6.90399 0.288004 6.71199C0.0966702 6.51999 0.000670115 6.28266 3.44827e-06 5.99999C-0.000663218 5.71733 0.0953369 5.47999 0.288004 5.28799C0.48067 5.09599 0.718003 4.99999 1 4.99999H17C17.2833 4.99999 17.521 5.09599 17.713 5.28799C17.905 5.47999 18.0007 5.71733 18 5.99999C17.9993 6.28266 17.9033 6.52033 17.712 6.71299C17.5207 6.90566 17.2833 7.00133 17 6.99999H1ZM1 1.99999C0.71667 1.99999 0.479337 1.90399 0.288004 1.71199C0.0966702 1.51999 0.000670115 1.28266 3.44827e-06 0.999992C-0.000663218 0.717326 0.0953369 0.479992 0.288004 0.287992C0.48067 0.0959925 0.718003 -7.62939e-06 1 -7.62939e-06H17C17.2833 -7.62939e-06 17.521 0.0959925 17.713 0.287992C17.905 0.479992 18.0007 0.717326 18 0.999992C17.9993 1.28266 17.9033 1.52033 17.712 1.71299C17.5207 1.90566 17.2833 2.00133 17 1.99999H1Z" fill="#101010"/>
</svg>
