<svg width="32" height="32" viewBox="0 0 32 32" fill="none" xmlns="http://www.w3.org/2000/svg">
<path d="M3.86669 9.59013H1.875V8.15531H0V32H1.875V30.5652H3.86669V32H5.74169V8.15531H3.86669V9.59013ZM3.86669 28.6902H1.875V26.8152H3.86669V28.6902ZM3.86669 24.9402H1.875V22.9485H3.86669V24.9402ZM3.86669 21.0735H1.875V19.0818H3.86669V21.0735ZM3.86669 17.2068H1.875V15.2151H3.86669V17.2068ZM3.86669 13.3401H1.875V11.4651H3.86669V13.3401ZM7.61669 24.8819H13.3422V29.7444H7.61669V24.8819ZM7.61669 17.1484H13.3422V23.0068H7.61669V17.1484ZM16.9417 1.83731V11.3527C15.6696 11.6778 14.7291 12.8314 14.7291 14.2048C14.7291 15.8306 16.047 17.1484 17.6727 17.1484C19.2984 17.1484 20.6163 15.8305 20.6163 14.2048V5.3895L28.3253 4.44887V9.51538C27.0532 9.84044 26.1127 10.9941 26.1127 12.3674C26.1127 13.9932 27.4306 15.3111 29.0563 15.3111C30.6821 15.3111 31.9999 13.9931 31.9999 12.3674V0L16.9417 1.83731ZM19.084 21.0735H17.0923V18.9872C16.4295 18.9075 15.7908 18.69 15.2172 18.3486V32H17.0923V30.5652H19.084V32H20.959V17.7244C20.4307 18.218 19.7921 18.5948 19.084 18.8122V21.0735ZM19.084 28.6902H17.0923V26.8152H19.084V28.6902ZM19.084 24.9402H17.0923V22.9485H19.084V24.9402ZM7.61669 15.2734H12.9749C12.73 14.2015 12.8596 13.0779 13.3422 12.0899V10.4109H7.61662L7.61669 15.2734Z" fill="#0085FF"/>
</svg>
