<svg width="18" height="18" viewBox="0 0 18 18" fill="none" xmlns="http://www.w3.org/2000/svg">
<path d="M3.59604 7.20093C3.59555 6.07813 3.9448 4.98305 4.59528 4.06786C5.24576 3.15267 6.16516 2.46282 7.22572 2.09416C7.18465 1.83685 7.19989 1.5737 7.27039 1.32285C7.3409 1.072 7.46498 0.839431 7.63409 0.641192C7.80319 0.442953 8.0133 0.283762 8.2499 0.174602C8.4865 0.0654415 8.74396 0.00891113 9.00453 0.00891113C9.2651 0.00891113 9.52256 0.0654415 9.75916 0.174602C9.99576 0.283762 10.2059 0.442953 10.375 0.641192C10.5441 0.839431 10.6682 1.072 10.7387 1.32285C10.8092 1.5737 10.8244 1.83685 10.7833 2.09416C11.8422 2.46433 12.7597 3.15483 13.4084 4.06989C14.0572 4.98495 14.4052 6.07922 14.404 7.20093V12.6049L17.106 14.4063V15.3069H0.894043V14.4063L3.59604 12.6049V7.20093ZM10.8014 16.2076C10.8014 16.6853 10.6116 17.1435 10.2738 17.4813C9.93594 17.8191 9.47777 18.0089 9.00003 18.0089C8.52228 18.0089 8.06411 17.8191 7.72629 17.4813C7.38848 17.1435 7.1987 16.6853 7.1987 16.2076H10.8014Z" fill="#0085FF"/>
</svg>
