<svg width="18" height="20" viewBox="0 0 18 20" fill="none" xmlns="http://www.w3.org/2000/svg">
<path d="M17.4188 4.1809L13.3328 0.167852C13.2232 0.0602477 13.0758 -2.74361e-05 12.9222 9.3686e-09L2.59213 9.3686e-09C1.38674 9.3686e-09 0.405884 0.980664 0.405884 2.18629V17.8137C0.405884 19.0192 1.38655 20 2.59217 20H15.4078C16.6133 20 17.5941 19.0193 17.5941 17.8137V4.59898C17.5941 4.52114 17.5786 4.44408 17.5485 4.37229C17.5184 4.30051 17.4743 4.23545 17.4188 4.1809H17.4188ZM13.5081 1.98273L15.5754 4.01305H13.6944C13.645 4.01297 13.5977 3.99332 13.5628 3.95839C13.5279 3.92346 13.5082 3.87611 13.5081 3.82672V1.98273ZM15.4079 18.8281H2.59217C2.03292 18.8281 1.57776 18.3731 1.57776 17.8137V2.18633C1.57776 1.62691 2.03276 1.17188 2.59217 1.17188H12.3364V3.82676C12.3364 4.57566 12.9457 5.18496 13.6946 5.18496H16.4223V17.8137C16.4223 18.373 15.9673 18.8281 15.4078 18.8281L15.4079 18.8281Z" fill="#101010"/>
<path d="M13.0678 9.29688H4.80786C4.48423 9.29688 4.22192 9.55918 4.22192 9.88281C4.22192 10.2064 4.48423 10.4688 4.80786 10.4688H13.0678C13.3914 10.4688 13.6537 10.2064 13.6537 9.88281C13.6537 9.55918 13.3915 9.29688 13.0678 9.29688ZM4.8079 12.8125H11.5428C11.8665 12.8125 12.1288 12.5502 12.1288 12.2266C12.1288 11.9029 11.8665 11.6406 11.5428 11.6406H4.8079C4.48427 11.6406 4.22196 11.9029 4.22196 12.2266C4.22196 12.5502 4.48427 12.8125 4.8079 12.8125ZM12.3554 13.9844H4.8079C4.48427 13.9844 4.22196 14.2467 4.22196 14.5703C4.22196 14.8939 4.48427 15.1562 4.8079 15.1562H12.3554C12.6788 15.1562 12.9413 14.8939 12.9413 14.5703C12.9413 14.2467 12.6788 13.9844 12.3554 13.9844Z" fill="#101010"/>
</svg>
