<svg width="24" height="24" viewBox="0 0 24 24" fill="none" xmlns="http://www.w3.org/2000/svg">
<path d="M22.5 10.5C22.3674 10.5 22.2402 10.4473 22.1464 10.3536C22.0527 10.2598 22 10.1326 22 10C22 7.062 20.856 4.299 18.778 2.222C18.6869 2.1277 18.6365 2.0014 18.6377 1.8703C18.6388 1.7392 18.6914 1.61379 18.7841 1.52109C18.8768 1.42839 19.0022 1.3758 19.1333 1.37466C19.2644 1.37352 19.3907 1.42392 19.485 1.515C20.603 2.6265 21.4894 3.9488 22.0927 5.40528C22.6961 6.86176 23.0045 8.42349 23 10C23 10.1326 22.9473 10.2598 22.8536 10.3536C22.7598 10.4473 22.6326 10.5 22.5 10.5ZM1.5 10.5C1.36739 10.5 1.24021 10.4473 1.14645 10.3536C1.05268 10.2598 1 10.1326 1 10C1 6.794 2.248 3.781 4.515 1.515C4.6093 1.42392 4.7356 1.37352 4.8667 1.37466C4.9978 1.3758 5.12321 1.42839 5.21591 1.52109C5.30861 1.61379 5.3612 1.7392 5.36234 1.8703C5.36348 2.0014 5.31308 2.1277 5.222 2.222C4.19721 3.24093 3.38475 4.45306 2.83169 5.78817C2.27862 7.12329 1.99593 8.55487 2 10C2 10.1326 1.94732 10.2598 1.85355 10.3536C1.75979 10.4473 1.63261 10.5 1.5 10.5ZM13.5 4.18C13.3674 4.18 13.2402 4.12732 13.1464 4.03355C13.0527 3.93979 13 3.81261 13 3.68V2C13 1.449 12.551 1 12 1C11.449 1 11 1.449 11 2V3.68C11 3.81261 10.9473 3.93979 10.8536 4.03355C10.7598 4.12732 10.6326 4.18 10.5 4.18C10.3674 4.18 10.2402 4.12732 10.1464 4.03355C10.0527 3.93979 10 3.81261 10 3.68V2C10 0.897 10.897 0 12 0C13.103 0 14 0.897 14 2V3.68C14 3.81261 13.9473 3.93979 13.8536 4.03355C13.7598 4.12732 13.6326 4.18 13.5 4.18ZM12 24C10.07 24 8.5 22.43 8.5 20.5C8.5 20.3674 8.55268 20.2402 8.64645 20.1464C8.74021 20.0527 8.86739 20 9 20C9.13261 20 9.25979 20.0527 9.35355 20.1464C9.44732 20.2402 9.5 20.3674 9.5 20.5C9.5 21.878 10.622 23 12 23C13.378 23 14.5 21.878 14.5 20.5C14.5 20.3674 14.5527 20.2402 14.6464 20.1464C14.7402 20.0527 14.8674 20 15 20C15.1326 20 15.2598 20.0527 15.3536 20.1464C15.4473 20.2402 15.5 20.3674 15.5 20.5C15.5 22.43 13.93 24 12 24Z" fill="#5E5F60"/>
<path d="M20.4999 21H3.4999C3.19377 20.9989 2.89528 20.9043 2.6444 20.7289C2.39353 20.5535 2.20225 20.3055 2.09619 20.0184C1.99013 19.7312 1.97436 19.4185 2.05098 19.1221C2.1276 18.8257 2.29295 18.5598 2.5249 18.36C3.30057 17.7071 3.92404 16.8924 4.35158 15.973C4.77913 15.0536 5.0004 14.0519 4.9999 13.038V10C4.9999 6.14 8.1399 3 11.9999 3C15.8599 3 18.9999 6.14 18.9999 10V13.038C18.9999 15.091 19.8989 17.028 21.4669 18.353C21.7015 18.5515 21.8696 18.8172 21.9484 19.1143C22.0272 19.4113 22.0128 19.7254 21.9074 20.0141C21.8019 20.3027 21.6104 20.5521 21.3587 20.7284C21.107 20.9047 20.8072 20.9995 20.4999 21ZM11.9999 4C8.6909 4 5.9999 6.691 5.9999 10V13.038C6.001 14.1956 5.7491 15.3395 5.26181 16.3895C4.77453 17.4396 4.06364 18.3705 3.1789 19.117C3.10033 19.1829 3.04394 19.2714 3.01738 19.3705C2.99081 19.4696 2.99536 19.5744 3.03041 19.6708C3.06545 19.7672 3.12929 19.8505 3.21328 19.9094C3.29727 19.9683 3.39733 19.9999 3.4999 20H20.4999C20.6021 20 20.7019 19.9687 20.7857 19.9103C20.8696 19.8518 20.9336 19.7691 20.969 19.6732C21.0044 19.5773 21.0096 19.4729 20.9838 19.374C20.958 19.2751 20.9026 19.1864 20.8249 19.12C19.9394 18.3733 19.2277 17.442 18.7397 16.3914C18.2518 15.3409 17.9993 14.1964 17.9999 13.038V10C17.9999 6.691 15.3089 4 11.9999 4Z" fill="#5E5F60"/>
</svg>
