<svg width="23" height="24" viewBox="0 0 23 24" fill="none" xmlns="http://www.w3.org/2000/svg">
<path d="M22.3335 10.5C22.2009 10.5 22.0737 10.4473 21.9799 10.3536C21.8862 10.2598 21.8335 10.1326 21.8335 10C21.8335 7.062 20.6895 4.299 18.6115 2.222C18.5204 2.1277 18.47 2.0014 18.4712 1.8703C18.4723 1.7392 18.5249 1.61379 18.6176 1.52109C18.7103 1.42839 18.8357 1.3758 18.9668 1.37466C19.0979 1.37352 19.2242 1.42392 19.3185 1.515C20.4365 2.6265 21.3229 3.9488 21.9262 5.40528C22.5296 6.86176 22.838 8.42349 22.8335 10C22.8335 10.1326 22.7808 10.2598 22.687 10.3536C22.5933 10.4473 22.4661 10.5 22.3335 10.5ZM1.3335 10.5C1.20089 10.5 1.07371 10.4473 0.979943 10.3536C0.886174 10.2598 0.833496 10.1326 0.833496 10C0.833496 6.794 2.0815 3.781 4.3485 1.515C4.4428 1.42392 4.5691 1.37352 4.7002 1.37466C4.8313 1.3758 4.9567 1.42839 5.04941 1.52109C5.14211 1.61379 5.19469 1.7392 5.19583 1.8703C5.19697 2.0014 5.14658 2.1277 5.0555 2.222C4.0307 3.24093 3.21825 4.45306 2.66518 5.78817C2.11212 7.12329 1.82943 8.55487 1.8335 10C1.8335 10.1326 1.78082 10.2598 1.68705 10.3536C1.59328 10.4473 1.4661 10.5 1.3335 10.5ZM13.3335 4.18C13.2009 4.18 13.0737 4.12732 12.9799 4.03355C12.8862 3.93979 12.8335 3.81261 12.8335 3.68V2C12.8335 1.449 12.3845 1 11.8335 1C11.2825 1 10.8335 1.449 10.8335 2V3.68C10.8335 3.81261 10.7808 3.93979 10.687 4.03355C10.5933 4.12732 10.4661 4.18 10.3335 4.18C10.2009 4.18 10.0737 4.12732 9.97994 4.03355C9.88617 3.93979 9.8335 3.81261 9.8335 3.68V2C9.8335 0.897 10.7305 0 11.8335 0C12.9365 0 13.8335 0.897 13.8335 2V3.68C13.8335 3.81261 13.7808 3.93979 13.687 4.03355C13.5933 4.12732 13.4661 4.18 13.3335 4.18ZM11.8335 24C9.9035 24 8.3335 22.43 8.3335 20.5C8.3335 20.3674 8.38617 20.2402 8.47994 20.1464C8.57371 20.0527 8.70089 20 8.8335 20C8.9661 20 9.09328 20.0527 9.18705 20.1464C9.28082 20.2402 9.3335 20.3674 9.3335 20.5C9.3335 21.878 10.4555 23 11.8335 23C13.2115 23 14.3335 21.878 14.3335 20.5C14.3335 20.3674 14.3862 20.2402 14.4799 20.1464C14.5737 20.0527 14.7009 20 14.8335 20C14.9661 20 15.0933 20.0527 15.187 20.1464C15.2808 20.2402 15.3335 20.3674 15.3335 20.5C15.3335 22.43 13.7635 24 11.8335 24Z" fill="#5E5F60"/>
<path d="M20.3334 21H3.3334C3.02727 20.9989 2.72877 20.9043 2.4779 20.7289C2.22702 20.5535 2.03575 20.3055 1.92969 20.0184C1.82363 19.7312 1.80786 19.4185 1.88447 19.1221C1.96109 18.8257 2.12645 18.5598 2.3584 18.36C3.13407 17.7071 3.75753 16.8924 4.18508 15.973C4.61262 15.0536 4.8339 14.0519 4.8334 13.038V10C4.8334 6.14 7.9734 3 11.8334 3C15.6934 3 18.8334 6.14 18.8334 10V13.038C18.8334 15.091 19.7324 17.028 21.3004 18.353C21.535 18.5515 21.7031 18.8172 21.7819 19.1143C21.8607 19.4113 21.8463 19.7254 21.7409 20.0141C21.6354 20.3027 21.4439 20.5521 21.1922 20.7284C20.9405 20.9047 20.6407 20.9995 20.3334 21ZM11.8334 4C8.52439 4 5.8334 6.691 5.8334 10V13.038C5.8345 14.1956 5.58259 15.3395 5.09531 16.3895C4.60802 17.4396 3.89713 18.3705 3.0124 19.117C2.93383 19.1829 2.87744 19.2714 2.85087 19.3705C2.82431 19.4696 2.82886 19.5744 2.8639 19.6708C2.89895 19.7672 2.96279 19.8505 3.04678 19.9094C3.13076 19.9683 3.23082 19.9999 3.3334 20H20.3334C20.4356 20 20.5354 19.9687 20.6192 19.9103C20.7031 19.8518 20.7671 19.7691 20.8025 19.6732C20.8379 19.5773 20.8431 19.4729 20.8173 19.374C20.7915 19.2751 20.7361 19.1864 20.6584 19.12C19.7729 18.3733 19.0612 17.442 18.5732 16.3914C18.0852 15.3409 17.8328 14.1964 17.8334 13.038V10C17.8334 6.691 15.1424 4 11.8334 4Z" fill="#5E5F60"/>
</svg>
