<svg width="25" height="24" viewBox="0 0 25 24" fill="none" xmlns="http://www.w3.org/2000/svg">
<g clip-path="url(#clip0_435_1917)">
<path d="M16.8568 10.3894V5.84746C16.8568 5.71747 16.7968 5.59733 16.7118 5.50232L11.6196 0.155109C11.5245 0.0551249 11.3895 0 11.2545 0H3.18106C1.69053 0 0.5 1.21547 0.5 2.70609V17.9725C0.5 19.4631 1.69053 20.6587 3.18101 20.6587H9.55379C10.7592 22.6594 12.9502 24 15.4462 24C19.2377 24 22.334 20.9187 22.334 17.1221C22.3392 13.8057 19.958 11.0346 16.8568 10.3894V10.3894ZM11.7548 1.75584L15.1711 5.35222H12.9552C12.2949 5.35222 11.7547 4.80707 11.7547 4.14684L11.7548 1.75584ZM3.18101 19.6582C2.24572 19.6582 1.5005 18.9078 1.5005 17.9725V2.70609C1.5005 1.76568 2.24572 1.0005 3.18101 1.0005H10.7543V4.14674C10.7543 5.36221 11.7397 6.35267 12.9552 6.35267H15.8563V10.2592C15.7063 10.2543 15.5862 10.2392 15.4562 10.2392C13.7105 10.2392 12.1048 10.9096 10.8943 11.96H4.5417C4.26649 11.96 4.04145 12.1851 4.04145 12.4601C4.04145 12.7354 4.26645 12.9603 4.5417 12.9603H9.96395C9.60873 13.4606 9.31356 13.9608 9.08364 14.5111H4.54165C4.26645 14.5111 4.0414 14.7361 4.0414 15.0113C4.0414 15.2863 4.2664 15.5116 4.54165 15.5116H8.75838C8.63331 16.0118 8.5683 16.567 8.5683 17.1222C8.5683 18.0225 8.74333 18.9129 9.05847 19.6633H3.18101V19.6582ZM15.4513 23.0046C12.2099 23.0046 9.57376 20.3684 9.57376 17.1271C9.57376 13.8858 12.2049 11.2496 15.4513 11.2496C18.6975 11.2496 21.3286 13.8858 21.3286 17.1271C21.3286 20.3684 18.6926 23.0046 15.4513 23.0046Z" fill="#5E5F60"/>
<path d="M4.54175 10.4544H9.6088C9.884 10.4544 10.1091 10.2292 10.1091 9.95412C10.1091 9.67896 9.88405 9.45392 9.6088 9.45392H4.54175C4.26655 9.45392 4.0415 9.67892 4.0415 9.95412C4.0415 10.2292 4.2665 10.4544 4.54175 10.4544ZM17.137 17.007H15.7064V14.9612C15.7064 14.6862 15.4814 14.4609 15.2061 14.4609C14.931 14.4609 14.7059 14.6862 14.7059 14.9612V17.5072C14.7059 17.7824 14.926 18.0075 15.201 18.0075H17.1419C17.417 18.0075 17.6422 17.7825 17.6422 17.5072C17.6422 17.2322 17.4172 17.007 17.137 17.007Z" fill="#5E5F60"/>
<path d="M15.4413 12.045C12.6301 12.045 10.3442 14.3309 10.3442 17.1422C10.3442 19.9534 12.6301 22.2393 15.4413 22.2393C18.2526 22.2393 20.5384 19.9534 20.5384 17.1421C20.5384 14.3309 18.2526 12.045 15.4413 12.045V12.045ZM15.4413 21.2388C13.1804 21.2388 11.3447 19.4031 11.3447 17.1421C11.3447 14.8812 13.1804 13.0455 15.4413 13.0455C17.7023 13.0455 19.538 14.8812 19.538 17.1421C19.538 19.4031 17.7023 21.2388 15.4413 21.2388Z" fill="#5E5F60"/>
</g>
<defs>
<clipPath id="clip0_435_1917">
<rect width="24" height="24" fill="white" transform="translate(0.5)"/>
</clipPath>
</defs>
</svg>
