<svg width="24" height="24" viewBox="0 0 24 24" fill="none" xmlns="http://www.w3.org/2000/svg">
<path d="M15.1875 17.4637C7.87425 16.4276 8.03588 5.724 15.375 4.90125V3.375C15.3748 2.87778 15.1772 2.40098 14.8256 2.04939C14.474 1.69781 13.9972 1.5002 13.5 1.5H4.5C4.00278 1.5002 3.52598 1.69781 3.17439 2.04939C2.82281 2.40098 2.6252 2.87778 2.625 3.375V20.625C2.6252 21.1222 2.82281 21.599 3.17439 21.9506C3.52598 22.3022 4.00278 22.4998 4.5 22.5H13.5C13.9972 22.4998 14.474 22.3022 14.8256 21.9506C15.1772 21.599 15.3748 21.1222 15.375 20.625V17.4825C15.3135 17.4776 15.249 17.4735 15.1875 17.4637ZM11.625 3.375C11.7245 3.375 11.8198 3.41451 11.8902 3.48484C11.9605 3.55516 12 3.65054 12 3.75C12 3.84946 11.9605 3.94484 11.8902 4.01516C11.8198 4.08549 11.7245 4.125 11.625 4.125C11.5255 4.125 11.4302 4.08549 11.3598 4.01516C11.2895 3.94484 11.25 3.84946 11.25 3.75C11.25 3.65054 11.2895 3.55516 11.3598 3.48484C11.4302 3.41451 11.5255 3.375 11.625 3.375ZM6.75 3.375H10.125C10.2245 3.375 10.3198 3.41451 10.3902 3.48484C10.4605 3.55516 10.5 3.65054 10.5 3.75C10.5 3.84946 10.4605 3.94484 10.3902 4.01516C10.3198 4.08549 10.2245 4.125 10.125 4.125H6.75C6.65054 4.125 6.55516 4.08549 6.48483 4.01516C6.41451 3.94484 6.375 3.84946 6.375 3.75C6.375 3.65054 6.41451 3.55516 6.48483 3.48484C6.55516 3.41451 6.65054 3.375 6.75 3.375ZM9.12 16.0988C8.7525 16.7501 8.01825 18.0637 7.65375 18.7162C6.354 20.8444 3.24638 19.0702 4.38 16.8825C4.7475 16.2315 5.48175 14.9175 5.84625 14.265C7.128 12.1425 10.2622 13.896 9.12 16.0988Z" fill="white"/>
<path d="M16.2787 5.63623C12.8328 5.35498 9.96744 8.68798 10.5674 12.0825C11.1003 15.9724 15.6573 18.0592 18.8737 15.8812C18.9664 15.8237 19.0771 15.8027 19.1845 15.822C19.2918 15.8414 19.3882 15.8999 19.4549 15.9862L20.7112 17.49C20.7611 17.548 20.8275 17.5894 20.9016 17.6089C20.9756 17.6283 21.0538 17.6248 21.1258 17.5987C21.1978 17.5727 21.2601 17.5254 21.3046 17.4631C21.3491 17.4008 21.3737 17.3265 21.3749 17.25V11.3437C21.3749 8.32123 19.1362 5.81248 16.2787 5.63623ZM19.2074 13.6462C19.1786 13.7139 19.1305 13.7716 19.0692 13.8123C19.0079 13.8529 18.936 13.8747 18.8624 13.875H16.3124V14.25C16.3124 14.3494 16.2729 14.4448 16.2026 14.5151C16.1323 14.5855 16.0369 14.625 15.9374 14.625C15.838 14.625 15.7426 14.5855 15.6723 14.5151C15.602 14.4448 15.5624 14.3494 15.5624 14.25V13.875H13.0124C12.9392 13.8737 12.8678 13.8512 12.8071 13.8102C12.7463 13.7692 12.6988 13.7115 12.6702 13.644C12.6416 13.5765 12.6332 13.5022 12.6461 13.43C12.6589 13.3579 12.6924 13.291 12.7424 13.2375C13.1441 12.822 13.3686 12.2666 13.3687 11.6887V10.5C13.3604 10.1574 13.4207 9.81667 13.5461 9.49777C13.6715 9.17888 13.8594 8.88828 14.0987 8.64307C14.3381 8.39787 14.624 8.20301 14.9398 8.06998C15.2556 7.93694 15.5948 7.8684 15.9374 7.8684C16.2801 7.8684 16.6193 7.93694 16.9351 8.06998C17.2508 8.20301 17.5368 8.39787 17.7762 8.64307C18.0155 8.88828 18.2034 9.17888 18.3288 9.49777C18.4542 9.81667 18.5145 10.1574 18.5062 10.5V11.6887C18.5062 12.2666 18.7308 12.822 19.1324 13.2375C19.1839 13.2906 19.2184 13.3578 19.2317 13.4305C19.2451 13.5032 19.2366 13.5783 19.2074 13.6462Z" fill="white"/>
<path d="M17.9025 12.615C17.6933 12.0645 17.7675 11.085 17.7563 10.5C17.7612 10.2581 17.7178 10.0176 17.6286 9.7926C17.5394 9.56764 17.4062 9.36273 17.2368 9.18989C17.0675 9.01704 16.8653 8.87972 16.6422 8.78598C16.4191 8.69224 16.1795 8.64395 15.9375 8.64395C15.6955 8.64395 15.4559 8.69224 15.2328 8.78598C15.0097 8.87972 14.8076 9.01704 14.6382 9.18989C14.4688 9.36273 14.3356 9.56764 14.2465 9.7926C14.1573 10.0176 14.1139 10.2581 14.1188 10.5C14.1214 11.3216 14.2013 12.4013 13.755 13.125H18.12C18.0322 12.962 17.9594 12.7913 17.9025 12.615ZM5.03626 17.25C4.89756 17.5096 4.86616 17.8132 4.94882 18.0956C5.03147 18.3781 5.22158 18.6169 5.47833 18.7607C5.73508 18.9045 6.038 18.942 6.32204 18.8649C6.60608 18.7879 6.8486 18.6026 6.99751 18.3488L7.54876 17.3663L5.58751 16.2675L5.03626 17.25ZM8.03251 14.2013C7.77234 14.056 7.46519 14.0199 7.17839 14.1007C6.8916 14.1815 6.64855 14.3728 6.50251 14.6325L5.95126 15.615L7.91251 16.7138L8.46376 15.7313C8.6092 15.4711 8.64548 15.1639 8.56463 14.8771C8.48377 14.5902 8.2924 14.3472 8.03251 14.2013Z" fill="white"/>
</svg>
