<svg width="24" height="24" viewBox="0 0 24 24" fill="none" xmlns="http://www.w3.org/2000/svg">
<path d="M21.1538 16.7734L14.4063 4.36973C13.3222 2.54463 10.6794 2.54221 9.59388 4.36973L2.84667 16.7734C1.73842 18.6384 3.08017 21 5.2523 21H18.7476C20.9179 21 22.2621 18.6403 21.1538 16.7734ZM12.0001 18.7616C11.3831 18.7616 10.8809 18.2593 10.8809 17.6424C10.8809 17.0254 11.3831 16.5232 12.0001 16.5232C12.6171 16.5232 13.1193 17.0254 13.1193 17.6424C13.1193 18.2593 12.6171 18.7616 12.0001 18.7616ZM13.1193 14.2847C13.1193 14.9017 12.6171 15.4039 12.0001 15.4039C11.3831 15.4039 10.8809 14.9017 10.8809 14.2847V8.68866C10.8809 8.07168 11.3831 7.56945 12.0001 7.56945C12.6171 7.56945 13.1193 8.07168 13.1193 8.68866V14.2847Z" fill="#E98819"/>
</svg>
