<svg width="18" height="18" viewBox="0 0 18 18" fill="none" xmlns="http://www.w3.org/2000/svg">
<path d="M14.8752 3.09173C14.1111 2.32015 13.201 1.70837 12.1981 1.29203C11.1952 0.875697 10.1194 0.663134 9.0335 0.666732C4.4835 0.666732 0.775163 4.37507 0.775163 8.92507C0.775163 10.3834 1.1585 11.8001 1.87516 13.0501L0.708496 17.3334L5.0835 16.1834C6.29183 16.8417 7.65016 17.1917 9.0335 17.1917C13.5835 17.1917 17.2918 13.4834 17.2918 8.9334C17.2918 6.72507 16.4335 4.65007 14.8752 3.09173ZM9.0335 15.7917C7.80016 15.7917 6.59183 15.4584 5.5335 14.8334L5.2835 14.6834L2.6835 15.3667L3.37516 12.8334L3.2085 12.5751C2.52312 11.4809 2.15927 10.2161 2.1585 8.92507C2.1585 5.14173 5.24183 2.0584 9.02516 2.0584C10.8585 2.0584 12.5835 2.77507 13.8752 4.07507C14.5148 4.71162 15.0218 5.46885 15.3665 6.30284C15.7113 7.13683 15.887 8.03097 15.8835 8.9334C15.9002 12.7167 12.8168 15.7917 9.0335 15.7917ZM12.8002 10.6584C12.5918 10.5584 11.5752 10.0584 11.3918 9.9834C11.2002 9.91673 11.0668 9.8834 10.9252 10.0834C10.7835 10.2917 10.3918 10.7584 10.2752 10.8917C10.1585 11.0334 10.0335 11.0501 9.82516 10.9417C9.61683 10.8417 8.95016 10.6167 8.16683 9.91673C7.55016 9.36673 7.14183 8.69173 7.01683 8.4834C6.90016 8.27507 7.00016 8.16673 7.1085 8.0584C7.20016 7.96673 7.31683 7.81673 7.41683 7.70007C7.51683 7.5834 7.5585 7.49173 7.62516 7.3584C7.69183 7.21673 7.6585 7.10007 7.6085 7.00007C7.5585 6.90007 7.14183 5.8834 6.97516 5.46673C6.8085 5.06673 6.6335 5.11673 6.5085 5.1084H6.1085C5.96683 5.1084 5.75016 5.1584 5.5585 5.36673C5.37516 5.57507 4.84183 6.07507 4.84183 7.09173C4.84183 8.1084 5.5835 9.09173 5.6835 9.22507C5.7835 9.36673 7.14183 11.4501 9.2085 12.3417C9.70016 12.5584 10.0835 12.6834 10.3835 12.7751C10.8752 12.9334 11.3252 12.9084 11.6835 12.8584C12.0835 12.8001 12.9085 12.3584 13.0752 11.8751C13.2502 11.3917 13.2502 10.9834 13.1918 10.8917C13.1335 10.8001 13.0085 10.7584 12.8002 10.6584Z" fill="#101010"/>
</svg>
